#!OML:ASF F:\VICON\USERDATA\INSTALL\rory3\rory3.ASF
:FULLY-SPECIFIED
:DEGREES
347
root 5.64315 17.7533 9.52772 -178.398 -17.6349 178.881
lowerback 12.942 1.18887 1.66454
upperback -0.24767 1.82171 0.578132
thorax -7.50261 0.809596 -0.672686
lowerneck -22.8041 -3.04592 -11.3753
upperneck 29.9533 -3.30994 6.83148
head 14.4374 -2.12215 4.0345
rclavicle -1.88845e-015 -6.75868e-015
rhumerus -33.9892 -15.5948 -71.5866
rradius 34.1319
rwrist 4.07476
rhand -16.0634 8.54991
rfingers 7.12502
rthumb 10.139 -21.1858
lclavicle -1.88845e-015 -6.75868e-015
lhumerus -34.1758 10.7025 79.5565
lradius 35.7156
lwrist -6.33209
lhand -21.3845 21.543
lfingers 7.12502
lthumb 5.00308 51.4639
rfemur -3.92854 3.59624 12.8857
rtibia 26.4002
rfoot -22.1721 7.55429
rtoes -4.48171
lfemur -7.25573 -13.5956 -1.9113
ltibia 17.7828
lfoot -7.44214 -1.72351
ltoes -12.9226
348
root 5.5482 17.738 9.54197 -178.328 -17.2684 178.789
lowerback 12.9443 1.24068 1.59741
upperback -0.270904 1.88033 0.553984
thorax -7.52891 0.840326 -0.672034
lowerneck -22.8313 -3.04926 -11.2751
upperneck 29.9038 -3.34037 6.8196
head 14.4224 -2.12167 4.0052
rclavicle -6.41081e-014 8.74653e-015
rhumerus -34.2313 -15.6272 -71.3743
rradius 34.4717
rwrist 4.37077
rhand -15.3997 7.81623
rfingers 7.12502
rthumb 10.7792 -21.8872
lclavicle -6.41081e-014 8.74653e-015
lhumerus -34.0923 10.5993 79.5709
lradius 35.6124
lwrist -6.38965
lhand -21.5172 21.2604
lfingers 7.12502
lthumb 4.87493 51.1843
rfemur -3.99275 3.91885 12.4351
rtibia 26.4037
rfoot -22.3306 7.49288
rtoes -5.11133
lfemur -6.93995 -14.2609 -1.69937
ltibia 16.6201
lfoot -6.74417 -2.02263
ltoes -11.5007
349
root 5.45158 17.7255 9.55686 -178.317 -16.9705 178.616
lowerback 13.0532 1.24606 1.39184
upperback -0.280875 1.85886 0.561364
thorax -7.60847 0.8369 -0.547074
lowerneck -22.7824 -3.02763 -11.2664
upperneck 29.8304 -3.33503 6.88168
head 14.3792 -2.10801 4.02817
rclavicle -3.598e-014 -1.66979e-014
rhumerus -34.482 -15.4849 -71.197
rradius 34.8885
rwrist 4.46114
rhand -15.0496 7.29144
rfingers 7.12502
rthumb 11.117 -22.3941
lclavicle -3.598e-014 -1.66979e-014
lhumerus -34.1346 10.6942 79.5639
lradius 35.6312
lwrist -6.59104
lhand -21.404 20.9714
lfingers 7.12502
lthumb 4.98422 50.8928
rfemur -3.95731 4.11843 11.9032
rtibia 26.3744
rfoot -22.4251 7.54449
rtoes -5.82177
lfemur -6.61924 -14.71 -1.63899
ltibia 15.5974
lfoot -5.88704 -2.64521
ltoes -10.3167
350
root 5.34944 17.713 9.56894 -178.37 -16.6959 178.514
lowerback 13.0985 1.20728 1.26873
upperback -0.240742 1.78944 0.604257
thorax -7.59738 0.807978 -0.419219
lowerneck -22.778 -2.98955 -11.3198
upperneck 29.7927 -3.27963 6.95001
head 14.3571 -2.08014 4.07517
rclavicle 1.23246e-014 9.54166e-015
rhumerus -34.2789 -15.3432 -71.0684
rradius 34.4866
rwrist 4.3723
rhand -15.1793 7.75345
rfingers 7.12502
rthumb 10.9918 -21.9388
lclavicle 1.23246e-014 9.54166e-015
lhumerus -34.1787 10.844 79.5664
lradius 35.6896
lwrist -6.71978
lhand -21.094 21.311
lfingers 7.12502
lthumb 5.28355 51.2251
rfemur -3.83205 4.27995 11.4043
rtibia 26.3111
rfoot -22.5136 7.76802
rtoes -5.92869
lfemur -6.29243 -15.0744 -1.5833
ltibia 14.7029
lfoot -5.03703 -3.33556
ltoes -9.59928
351
root 5.24649 17.7002 9.58287 -178.388 -16.4924 178.558
lowerback 13.0476 1.14621 1.30497
upperback -0.179764 1.71398 0.676412
thorax -7.50545 0.770997 -0.346559
lowerneck -22.9701 -3.0309 -11.4101
upperneck 29.8446 -3.30305 7.0176
head 14.4281 -2.08893 4.11746
rclavicle 3.97569e-014 1.59028e-014
rhumerus -33.7854 -15.4306 -70.8963
rradius 33.7753
rwrist 4.48175
rhand -15.2003 8.22863
rfingers 7.12502
rthumb 10.9716 -21.4647
lclavicle 3.97569e-014 1.59028e-014
lhumerus -34.1111 10.9279 79.6285
lradius 35.7315
lwrist -6.71286
lhand -21.1884 21.3312
lfingers 7.12502
lthumb 5.19246 51.2476
rfemur -3.78035 4.45173 11.0669
rtibia 26.2103
rfoot -22.531 7.8596
rtoes -6.092
lfemur -6.13256 -15.4417 -1.38202
ltibia 13.9671
lfoot -4.17477 -4.02884
ltoes -9.45817
352
root 5.1442 17.6885 9.59881 -178.373 -16.3107 178.592
lowerback 13.0176 1.08925 1.3329
upperback -0.168212 1.64371 0.716828
thorax -7.47745 0.736429 -0.305187
lowerneck -23.1265 -3.07289 -11.4222
upperneck 29.9553 -3.3715 7.06873
head 14.5209 -2.11587 4.13205
rclavicle 2.65874e-014 -1.27222e-014
rhumerus -33.3291 -15.7684 -70.6728
rradius 33.1869
rwrist 4.9279
rhand -15.1013 7.96073
rfingers 7.12502
rthumb 11.067 -21.7275
lclavicle 2.65874e-014 -1.27222e-014
lhumerus -34.0874 10.961 79.6426
lradius 35.7961
lwrist -6.7561
lhand -21.215 21.5701
lfingers 7.12502
lthumb 5.16673 51.4871
rfemur -3.73926 4.58944 10.7251
rtibia 26.0538
rfoot -22.5258 7.82071
rtoes -7.23206
lfemur -6.08137 -15.5092 -1.22535
ltibia 13.4375
lfoot -3.2992 -4.89867
ltoes -9.4029
353
root 5.03874 17.6779 9.61352 -178.385 -16.0969 178.735
lowerback 13.0421 1.04238 1.43486
upperback -0.265848 1.60722 0.793976
thorax -7.59613 0.715853 -0.275522
lowerneck -22.9532 -3.06426 -11.3661
upperneck 29.9873 -3.43149 7.07674
head 14.503 -2.14493 4.11303
rclavicle -2.8128e-014 7.15625e-015
rhumerus -32.9784 -16.1989 -70.3536
rradius 32.5331
rwrist 5.44443
rhand -15.1159 7.14743
rfingers 7.12502
rthumb 11.0529 -22.5415
lclavicle -2.8128e-014 7.15625e-015
lhumerus -34.2924 10.8098 79.6619
lradius 35.8707
lwrist -6.65255
lhand -21.404 21.6699
lfingers 7.12502
lthumb 4.98422 51.5913
rfemur -3.70314 4.75977 10.4875
rtibia 25.8706
rfoot -22.4346 7.77591
rtoes -8.2107
lfemur -6.01604 -15.4101 -0.98929
ltibia 13.0407
lfoot -2.43811 -5.75036
ltoes -8.6973
354
root 4.92444 17.6657 9.62706 -178.423 -15.7852 178.809
lowerback 13.1048 1.02708 1.49522
upperback -0.338925 1.60404 0.846052
thorax -7.71019 0.712166 -0.255706
lowerneck -22.8792 -3.02582 -11.259
upperneck 30.0771 -3.45512 7.07767
head 14.5263 -2.15373 4.09164
rclavicle -2.66371e-014 2.14687e-014
rhumerus -32.7704 -16.4289 -70.0965
rradius 32.1044
rwrist 5.69441
rhand -15.4078 6.28825
rfingers 7.12502
rthumb 10.7714 -23.4156
lclavicle -2.66371e-014 2.14687e-014
lhumerus -34.4808 10.757 79.6275
lradius 35.9451
lwrist -7.026
lhand -20.5602 21.9617
lfingers 7.12502
lthumb 5.79897 51.8623
rfemur -3.646 4.94897 10.1236
rtibia 25.7078
rfoot -22.2573 7.90292
rtoes -8.50653
lfemur -5.83594 -15.3958 -0.936413
ltibia 12.7708
lfoot -1.95925 -6.1273
ltoes -9.23345
355
root 4.79932 17.6493 9.63315 -178.376 -15.2168 178.857
lowerback 12.8387 1.10668 1.51684
upperback -0.320904 1.71229 0.916127
thorax -7.54028 0.767148 -0.208821
lowerneck -22.9027 -3.01375 -11.2277
upperneck 30.2049 -3.50125 7.15164
head 14.5942 -2.16971 4.11179
rclavicle 1.57537e-014 1.03368e-014
rhumerus -32.5961 -16.5419 -69.8389
rradius 31.828
rwrist 5.83468
rhand -15.4877 6.12061
rfingers 7.12502
rthumb 10.6943 -23.5872
lclavicle 1.57537e-014 1.03368e-014
lhumerus -34.5447 10.8879 79.6259
lradius 35.9965
lwrist -7.55303
lhand -19.5198 22.3866
lfingers 7.12502
lthumb 6.80336 52.2572
rfemur -3.73875 5.24539 9.66522
rtibia 25.6009
rfoot -22.1545 8.15443
rtoes -8.74718
lfemur -5.5381 -15.5244 -0.994929
ltibia 12.5502
lfoot -2.02189 -5.74465
ltoes -13.0741
356
root 4.67616 17.6256 9.6473 -178.445 -14.7957 179
lowerback 12.7644 1.12194 1.6508
upperback -0.302407 1.75416 0.995497
thorax -7.47646 0.783592 -0.206289
lowerneck -22.8227 -3.02772 -11.1886
upperneck 30.2142 -3.58163 7.20302
head 14.5903 -2.19841 4.11032
rclavicle 6.37105e-014 -9.54166e-015
rhumerus -32.4819 -16.8418 -69.5444
rradius 31.5586
rwrist 6.07203
rhand -15.2579 6.13486
rfingers 7.12502
rthumb 10.916 -23.5614
lclavicle 6.37105e-014 -9.54166e-015
lhumerus -34.599 10.8711 79.7305
lradius 36.0116
lwrist -7.17347
lhand -20.7754 21.5722
lfingers 7.12502
lthumb 5.59123 51.4785
rfemur -3.74361 5.53187 9.33947
rtibia 25.5182
rfoot -22.0621 8.37703
rtoes -8.74145
lfemur -5.24284 -15.4072 -0.979281
ltibia 12.4257
lfoot -2.56543 -5.55409
ltoes -18.4578
357
root 4.55508 17.6041 9.66554 -178.532 -14.4874 179.026
lowerback 12.8756 1.08915 1.64013
upperback -0.34811 1.71727 1.06609
thorax -7.59162 0.765805 -0.121145
lowerneck -22.6682 -3.01106 -11.1094
upperneck 30.2378 -3.60326 7.1247
head 14.5658 -2.21932 4.05801
rclavicle 5.57094e-014 -1.59028e-015
rhumerus -32.517 -17.167 -69.1968
rradius 31.4045
rwrist 6.41591
rhand -15.1745 5.85553
rfingers 7.12502
rthumb 10.9964 -23.8365
lclavicle 5.57094e-014 -1.59028e-015
lhumerus -34.7632 10.9298 79.7426
lradius 36.0586
lwrist -7.13426
lhand -19.0331 25.5983
lfingers 7.12502
lthumb 7.27316 55.4533
rfemur -3.69645 5.72041 8.91306
rtibia 25.4659
rfoot -21.9714 8.57548
rtoes -8.44299
lfemur -4.97423 -15.0262 -1.13533
ltibia 12.4206
lfoot -3.33111 -6.0863
ltoes -21.9628
358
root 4.42994 17.5802 9.68206 -178.625 -14.1193 179.122
lowerback 12.9386 1.094 1.69179
upperback -0.372435 1.7386 1.15635
thorax -7.65471 0.774359 -0.059983
lowerneck -22.5922 -2.98415 -11.0379
upperneck 30.3236 -3.62448 7.10941
head 14.5873 -2.23344 4.03614
rclavicle -1.85367e-014 1.59028e-015
rhumerus -32.5377 -17.4225 -68.8565
rradius 31.2963
rwrist 6.71302
rhand -15.2253 6.0379
rfingers 7.12502
rthumb 10.9474 -23.6567
lclavicle -1.85367e-014 1.59028e-015
lhumerus -34.8444 10.8531 79.7729
lradius 36.0507
lwrist -7.28535
lhand -18.6597 24.8031
lfingers 7.12502
lthumb 7.63364 54.6454
rfemur -3.63817 5.91073 8.56688
rtibia 25.4161
rfoot -22.0522 8.36591
rtoes -9.66117
lfemur -4.7311 -14.3896 -1.26096
ltibia 12.5385
lfoot -3.90853 -7.4558
ltoes -21.6895
359
root 4.2996 17.5539 9.69544 -178.799 -13.6859 179.221
lowerback 13.0342 1.13742 1.80286
upperback -0.352357 1.816 1.21214
thorax -7.68497 0.806771 -0.0798683
lowerneck -22.4014 -2.94923 -10.9886
upperneck 30.235 -3.65447 7.20551
head 14.5096 -2.23084 4.05807
rclavicle -3.57812e-014 2.22639e-014
rhumerus -32.6084 -17.7793 -68.5243
rradius 31.1849
rwrist 6.84007
rhand -15.367 6.51411
rfingers 7.12502
rthumb 10.8108 -23.1877
lclavicle -3.57812e-014 2.22639e-014
lhumerus -34.9095 10.6188 79.939
lradius 36.0679
lwrist -6.73462
lhand -19.6242 23.1654
lfingers 7.12502
lthumb 6.70257 53.0394
rfemur -3.46075 6.27639 8.23288
rtibia 25.3109
rfoot -22.1487 7.87824
rtoes -12.259
lfemur -4.41733 -13.777 -1.48316
ltibia 12.7923
lfoot -4.45578 -8.94295
ltoes -19.845
360
root 4.16797 17.5308 9.7091 -178.948 -13.2305 179.275
lowerback 13.1384 1.17124 1.8498
upperback -0.335606 1.87139 1.26491
thorax -7.72572 0.830957 -0.0629013
lowerneck -22.297 -2.95679 -10.9799
upperneck 30.1786 -3.73413 7.33649
head 14.4734 -2.24884 4.09366
rclavicle -2.83268e-014 1.59028e-015
rhumerus -32.6797 -17.9733 -68.2673
rradius 31.1844
rwrist 6.76047
rhand -15.4393 6.56112
rfingers 7.12502
rthumb 10.741 -23.1443
lclavicle -2.83268e-014 1.59028e-015
lhumerus -35.0191 10.5069 80.0444
lradius 36.1145
lwrist -6.40394
lhand -20.2198 22.3403
lfingers 7.12502
lthumb 6.12764 52.2317
rfemur -3.27241 6.66168 7.8195
rtibia 25.1314
rfoot -22.1336 7.79823
rtoes -13.4817
lfemur -4.15822 -13.1855 -1.78786
ltibia 13.1343
lfoot -5.35471 -9.7689
ltoes -20.5011
